ffmpeg version 4.2.2 Copyright (c) 2000-2019 the FFmpeg developers
  built with gcc 9.2.1 (GCC) 20200122
  configuration: --enable-gpl --enable-version3 --enable-sdl2 --enable-fontconfig --enable-gnutls --enable-iconv --enable-libass --enable-libdav1d --enable-libbluray --enable-libfreetype --enable-libmp3lame --enable-libopencore-amrnb --enable-libopencore-amrwb --enable-libopenjpeg --enable-libopus --enable-libshine --enable-libsnappy --enable-libsoxr --enable-libtheora --enable-libtwolame --enable-libvpx --enable-libwavpack --enable-libwebp --enable-libx264 --enable-libx265 --enable-libxml2 --enable-libzimg --enable-lzma --enable-zlib --enable-gmp --enable-libvidstab --enable-libvorbis --enable-libvo-amrwbenc --enable-libmysofa --enable-libspeex --enable-libxvid --enable-libaom --enable-libmfx --enable-amf --enable-ffnvcodec --enable-cuvid --enable-d3d11va --enable-nvenc --enable-nvdec --enable-dxva2 --enable-avisynth --enable-libopenmpt
  libavutil      56. 31.100 / 56. 31.100
  libavcodec     58. 54.100 / 58. 54.100
  libavformat    58. 29.100 / 58. 29.100
  libavdevice    58.  8.100 / 58.  8.100
  libavfilter     7. 57.100 /  7. 57.100
  libswscale      5.  5.100 /  5.  5.100
  libswresample   3.  5.100 /  3.  5.100
  libpostproc    55.  5.100 / 55.  5.100
Input #0, rawvideo, from 'pipe:':
  Duration: N/A, start: 0.000000, bitrate: 132710 kb/s
    Stream #0:0: Video: rawvideo (RGB[24] / 0x18424752), rgb24, 640x360, 132710 kb/s, 24 tbr, 24 tbn, 24 tbc
Stream mapping:
  Stream #0:0 -> #0:0 (rawvideo (native) -> h264 (libx264))
[libx264 @ 000002874140ce80] using cpu capabilities: MMX2 SSE2Fast SSSE3 SSE4.2 AVX FMA3 BMI2 AVX2
[libx264 @ 000002874140ce80] profile High, level 3.0, 4:2:0, 8-bit
[libx264 @ 000002874140ce80] 264 - core 159 - H.264/MPEG-4 AVC codec - Copyleft 2003-2019 - http://www.videolan.org/x264.html - options: cabac=1 ref=3 deblock=1:0:0 analyse=0x3:0x113 me=hex subme=7 psy=1 psy_rd=1.00:0.00 mixed_ref=1 me_range=16 chroma_me=1 trellis=1 8x8dct=1 cqm=0 deadzone=21,11 fast_pskip=1 chroma_qp_offset=-2 threads=11 lookahead_threads=1 sliced_threads=0 nr=0 decimate=1 interlaced=0 bluray_compat=0 constrained_intra=0 bframes=3 b_pyramid=2 b_adapt=1 b_bias=0 direct=1 weightb=1 open_gop=0 weightp=2 keyint=250 keyint_min=24 scenecut=40 intra_refresh=0 rc_lookahead=40 rc=crf mbtree=1 crf=23.0 qcomp=0.60 qpmin=0 qpmax=69 qpstep=4 ip_ratio=1.40 aq=1:1.00
Output #0, mp4, to 'output.mp4':
  Metadata:
    encoder         : Lavf58.29.100
    Stream #0:0: Video: h264 (libx264) (avc1 / 0x31637661), yuv420p, 640x360, q=-1--1, 24 fps, 12288 tbn, 24 tbc
    Metadata:
      encoder         : Lavc58.54.100 libx264
    Side data:
      cpb: bitrate max/min/avg: 0/0/0 buffer size: 0 vbv_delay: -1
frame=  285 fps=0.0 q=28.0 size=     256kB time=00:00:09.45 bitrate= 221.8kbits/s speed=18.9x    frame=  432 fps=0.0 q=-1.0 Lsize=     401kB time=00:00:17.87 bitrate= 183.9kbits/s speed=23.4x    
video:396kB audio:0kB subtitle:0kB other streams:0kB global headers:0kB muxing overhead: 1.479462%
[libx264 @ 000002874140ce80] frame I:6     Avg QP:17.00  size: 65518
[libx264 @ 000002874140ce80] frame P:108   Avg QP:19.51  size:    50
[libx264 @ 000002874140ce80] frame B:318   Avg QP:29.00  size:    18
[libx264 @ 000002874140ce80] consecutive B-frames:  1.4%  0.0%  4.2% 94.4%
[libx264 @ 000002874140ce80] mb I  I16..4:  6.1% 46.7% 47.2%
[libx264 @ 000002874140ce80] mb P  I16..4:  0.0%  0.0%  0.0%  P16..4:  0.9%  0.1%  0.0%  0.0%  0.0%    skip:99.0%
[libx264 @ 000002874140ce80] mb B  I16..4:  0.0%  0.0%  0.0%  B16..8:  0.1%  0.0%  0.0%  direct: 0.0%  skip:99.9%  L0: 5.9% L1:94.1% BI: 0.0%
[libx264 @ 000002874140ce80] 8x8 transform intra:46.7% inter:97.8%
[libx264 @ 000002874140ce80] coded y,uvDC,uvAC intra: 95.7% 94.5% 87.3% inter: 0.0% 0.2% 0.0%
[libx264 @ 000002874140ce80] i16 v,h,dc,p: 13% 39%  1% 48%
[libx264 @ 000002874140ce80] i8 v,h,dc,ddl,ddr,vr,hd,vl,hu: 15% 38% 11%  4%  4%  3%  9%  5% 11%
[libx264 @ 000002874140ce80] i4 v,h,dc,ddl,ddr,vr,hd,vl,hu: 24% 25%  8%  5%  8%  6%  9%  6% 10%
[libx264 @ 000002874140ce80] i8c dc,h,v,p: 36% 36% 18% 11%
[libx264 @ 000002874140ce80] Weighted P-Frames: Y:0.0% UV:0.0%
[libx264 @ 000002874140ce80] ref P L0: 89.8%  0.3%  9.2%  0.8%
[libx264 @ 000002874140ce80] ref B L0: 38.1% 61.9%
[libx264 @ 000002874140ce80] ref B L1: 89.8% 10.2%
[libx264 @ 000002874140ce80] kb/s:179.70
